<svg width="128" height="128" viewBox="0 0 128 128" fill="none" xmlns="http://www.w3.org/2000/svg">
  <defs>
    <linearGradient id="gradient" x1="0%" y1="0%" x2="100%" y2="100%">
      <stop offset="0%" style="stop-color:#667eea;stop-opacity:1" />
      <stop offset="100%" style="stop-color:#764ba2;stop-opacity:1" />
    </linearGradient>
  </defs>
  
  <!-- Background circle -->
  <circle cx="64" cy="64" r="60" fill="url(#gradient)" stroke="white" stroke-width="4"/>
  
  <!-- Web scraping icon -->
  <g transform="translate(32, 32)">
    <!-- Document/Page -->
    <rect x="8" y="12" width="48" height="64" rx="4" fill="white" opacity="0.9"/>
    <rect x="12" y="20" width="40" height="2" fill="#667eea"/>
    <rect x="12" y="28" width="32" height="2" fill="#667eea"/>
    <rect x="12" y="36" width="36" height="2" fill="#667eea"/>
    <rect x="12" y="44" width="28" height="2" fill="#667eea"/>
    <rect x="12" y="52" width="40" height="2" fill="#667eea"/>
    <rect x="12" y="60" width="24" height="2" fill="#667eea"/>
    
    <!-- Selection cursor -->
    <path d="M20 8 L28 8 L24 4 Z" fill="#ef4444"/>
    <line x1="24" y1="4" x2="24" y2="16" stroke="#ef4444" stroke-width="2"/>
    
    <!-- Data extraction arrows -->
    <path d="M48 24 L56 24 L52 20 Z" fill="#10b981"/>
    <path d="M48 32 L56 32 L52 36 Z" fill="#10b981"/>
    <path d="M48 40 L56 40 L52 44 Z" fill="#10b981"/>
  </g>
  
  <!-- OnPage text -->
  <text x="64" y="100" text-anchor="middle" fill="white" font-family="Arial, sans-serif" font-size="12" font-weight="bold">OnPage</text>
</svg>
